<svg width="18" height="19" viewBox="0 0 18 19" fill="none" xmlns="http://www.w3.org/2000/svg">
<path d="M8.18251 12.783V7.57495H9.72601V12.783H8.18251ZM8.94901 6.80845C8.69001 6.80845 8.48001 6.73495 8.31901 6.58795C8.15801 6.44095 8.07751 6.24495 8.07751 5.99995C8.07751 5.75495 8.15801 5.55895 8.31901 5.41195C8.48001 5.26495 8.69001 5.19145 8.94901 5.19145C9.20801 5.19145 9.41801 5.26495 9.57901 5.41195C9.74001 5.55895 9.82051 5.75495 9.82051 5.99995C9.82051 6.24495 9.74001 6.44095 9.57901 6.58795C9.41801 6.73495 9.20801 6.80845 8.94901 6.80845Z" fill="#8E8E8E"/>
<path fill-rule="evenodd" clip-rule="evenodd" d="M9 2.84546C5.58274 2.84546 2.8125 5.6157 2.8125 9.03296C2.8125 12.4502 5.58274 15.2205 9 15.2205C12.4173 15.2205 15.1875 12.4502 15.1875 9.03296C15.1875 5.6157 12.4173 2.84546 9 2.84546ZM1.6875 9.03296C1.6875 4.99438 4.96142 1.72046 9 1.72046C13.0386 1.72046 16.3125 4.99438 16.3125 9.03296C16.3125 13.0715 13.0386 16.3455 9 16.3455C4.96142 16.3455 1.6875 13.0715 1.6875 9.03296Z" fill="#8E8E8E"/>
</svg>
